<mxfile host="app.diagrams.net" agent="Mozilla/5.0 (Windows NT 10.0; Win64; x64) AppleWebKit/537.36 (KHTML, like Gecko) Chrome/128.0.0.0 Safari/537.36 OPR/114.0.0.0" version="24.8.2">
  <diagram name="Seite-1" id="rVX3T-TR96ipNoyHDVyT">
    <mxGraphModel dx="1241" dy="536" grid="0" gridSize="10" guides="1" tooltips="1" connect="1" arrows="1" fold="1" page="1" pageScale="1" pageWidth="11111" pageHeight="1169" math="0" shadow="0">
      <root>
        <mxCell id="0" />
        <mxCell id="1" parent="0" />
        <mxCell id="j82Xai9rbDh0sW9UpF-Y-7" value="" style="rounded=0;whiteSpace=wrap;html=1;" vertex="1" parent="1">
          <mxGeometry x="173" y="230" width="622" height="473" as="geometry" />
        </mxCell>
        <mxCell id="iiI9C8znlk5VDKFKb1sg-3" value="" style="edgeStyle=orthogonalEdgeStyle;rounded=0;orthogonalLoop=1;jettySize=auto;html=1;" parent="1" source="iiI9C8znlk5VDKFKb1sg-1" target="iiI9C8znlk5VDKFKb1sg-2" edge="1">
          <mxGeometry relative="1" as="geometry" />
        </mxCell>
        <mxCell id="iiI9C8znlk5VDKFKb1sg-1" value="Admin" style="shape=umlActor;verticalLabelPosition=bottom;verticalAlign=top;html=1;outlineConnect=0;" parent="1" vertex="1">
          <mxGeometry x="129" y="428" width="30" height="60" as="geometry" />
        </mxCell>
        <mxCell id="iiI9C8znlk5VDKFKb1sg-17" value="" style="edgeStyle=orthogonalEdgeStyle;rounded=0;orthogonalLoop=1;jettySize=auto;html=1;" parent="1" source="iiI9C8znlk5VDKFKb1sg-2" target="iiI9C8znlk5VDKFKb1sg-16" edge="1">
          <mxGeometry relative="1" as="geometry" />
        </mxCell>
        <mxCell id="iiI9C8znlk5VDKFKb1sg-2" value="Aufrufen der Anwendung Ã¼ber die Befehlszeile" style="ellipse;whiteSpace=wrap;html=1;" parent="1" vertex="1">
          <mxGeometry x="189" y="423" width="140" height="70" as="geometry" />
        </mxCell>
        <mxCell id="j82Xai9rbDh0sW9UpF-Y-1" style="edgeStyle=orthogonalEdgeStyle;rounded=0;orthogonalLoop=1;jettySize=auto;html=1;exitX=1;exitY=0.5;exitDx=0;exitDy=0;entryX=0;entryY=0.5;entryDx=0;entryDy=0;" edge="1" parent="1" source="iiI9C8znlk5VDKFKb1sg-4" target="iiI9C8znlk5VDKFKb1sg-19">
          <mxGeometry relative="1" as="geometry">
            <Array as="points">
              <mxPoint x="780" y="278" />
              <mxPoint x="780" y="460" />
            </Array>
          </mxGeometry>
        </mxCell>
        <mxCell id="iiI9C8znlk5VDKFKb1sg-4" value="Prozesse auslesen" style="ellipse;whiteSpace=wrap;html=1;" parent="1" vertex="1">
          <mxGeometry x="570" y="243" width="140" height="70" as="geometry" />
        </mxCell>
        <mxCell id="iiI9C8znlk5VDKFKb1sg-20" style="edgeStyle=orthogonalEdgeStyle;rounded=0;orthogonalLoop=1;jettySize=auto;html=1;exitX=1;exitY=0.5;exitDx=0;exitDy=0;entryX=0;entryY=0.5;entryDx=0;entryDy=0;" parent="1" source="iiI9C8znlk5VDKFKb1sg-6" target="iiI9C8znlk5VDKFKb1sg-19" edge="1">
          <mxGeometry relative="1" as="geometry">
            <Array as="points">
              <mxPoint x="780" y="368" />
              <mxPoint x="780" y="460" />
            </Array>
          </mxGeometry>
        </mxCell>
        <mxCell id="iiI9C8znlk5VDKFKb1sg-6" value="CPU-Daten auslesen" style="ellipse;whiteSpace=wrap;html=1;" parent="1" vertex="1">
          <mxGeometry x="570" y="333" width="140" height="70" as="geometry" />
        </mxCell>
        <mxCell id="iiI9C8znlk5VDKFKb1sg-21" style="edgeStyle=orthogonalEdgeStyle;rounded=0;orthogonalLoop=1;jettySize=auto;html=1;exitX=1;exitY=0.5;exitDx=0;exitDy=0;" parent="1" source="iiI9C8znlk5VDKFKb1sg-9" edge="1">
          <mxGeometry relative="1" as="geometry">
            <mxPoint x="830" y="460" as="targetPoint" />
            <Array as="points">
              <mxPoint x="710" y="460" />
            </Array>
          </mxGeometry>
        </mxCell>
        <mxCell id="iiI9C8znlk5VDKFKb1sg-9" value="RAM-Daten auslesen" style="ellipse;whiteSpace=wrap;html=1;" parent="1" vertex="1">
          <mxGeometry x="570" y="423" width="140" height="70" as="geometry" />
        </mxCell>
        <mxCell id="iiI9C8znlk5VDKFKb1sg-23" style="edgeStyle=orthogonalEdgeStyle;rounded=0;orthogonalLoop=1;jettySize=auto;html=1;exitX=1;exitY=0.5;exitDx=0;exitDy=0;entryX=0;entryY=0.5;entryDx=0;entryDy=0;" parent="1" source="iiI9C8znlk5VDKFKb1sg-11" target="iiI9C8znlk5VDKFKb1sg-19" edge="1">
          <mxGeometry relative="1" as="geometry">
            <Array as="points">
              <mxPoint x="780" y="648" />
              <mxPoint x="780" y="460" />
            </Array>
          </mxGeometry>
        </mxCell>
        <mxCell id="iiI9C8znlk5VDKFKb1sg-11" value="Diskspeicher-Daten auslesen" style="ellipse;whiteSpace=wrap;html=1;" parent="1" vertex="1">
          <mxGeometry x="570" y="613" width="140" height="70" as="geometry" />
        </mxCell>
        <mxCell id="iiI9C8znlk5VDKFKb1sg-22" style="edgeStyle=orthogonalEdgeStyle;rounded=0;orthogonalLoop=1;jettySize=auto;html=1;exitX=1;exitY=0.5;exitDx=0;exitDy=0;entryX=0;entryY=0.5;entryDx=0;entryDy=0;" parent="1" source="iiI9C8znlk5VDKFKb1sg-13" target="iiI9C8znlk5VDKFKb1sg-19" edge="1">
          <mxGeometry relative="1" as="geometry">
            <Array as="points">
              <mxPoint x="780" y="548" />
              <mxPoint x="780" y="460" />
            </Array>
          </mxGeometry>
        </mxCell>
        <mxCell id="iiI9C8znlk5VDKFKb1sg-13" value="Netzwerk-Daten auslesen" style="ellipse;whiteSpace=wrap;html=1;" parent="1" vertex="1">
          <mxGeometry x="570" y="513" width="140" height="70" as="geometry" />
        </mxCell>
        <mxCell id="iiI9C8znlk5VDKFKb1sg-18" value="" style="edgeStyle=orthogonalEdgeStyle;rounded=0;orthogonalLoop=1;jettySize=auto;html=1;" parent="1" source="iiI9C8znlk5VDKFKb1sg-16" target="iiI9C8znlk5VDKFKb1sg-4" edge="1">
          <mxGeometry relative="1" as="geometry">
            <Array as="points">
              <mxPoint x="424" y="278" />
            </Array>
          </mxGeometry>
        </mxCell>
        <mxCell id="j82Xai9rbDh0sW9UpF-Y-2" style="edgeStyle=orthogonalEdgeStyle;rounded=0;orthogonalLoop=1;jettySize=auto;html=1;exitX=1;exitY=0;exitDx=0;exitDy=0;entryX=0;entryY=0.5;entryDx=0;entryDy=0;" edge="1" parent="1" source="iiI9C8znlk5VDKFKb1sg-16" target="iiI9C8znlk5VDKFKb1sg-6">
          <mxGeometry relative="1" as="geometry">
            <Array as="points">
              <mxPoint x="474" y="368" />
            </Array>
          </mxGeometry>
        </mxCell>
        <mxCell id="j82Xai9rbDh0sW9UpF-Y-3" style="edgeStyle=orthogonalEdgeStyle;rounded=0;orthogonalLoop=1;jettySize=auto;html=1;exitX=1;exitY=0.5;exitDx=0;exitDy=0;entryX=0;entryY=0.5;entryDx=0;entryDy=0;" edge="1" parent="1" source="iiI9C8znlk5VDKFKb1sg-16" target="iiI9C8znlk5VDKFKb1sg-9">
          <mxGeometry relative="1" as="geometry">
            <Array as="points">
              <mxPoint x="368" y="458" />
            </Array>
          </mxGeometry>
        </mxCell>
        <mxCell id="j82Xai9rbDh0sW9UpF-Y-4" style="edgeStyle=orthogonalEdgeStyle;rounded=0;orthogonalLoop=1;jettySize=auto;html=1;exitX=1;exitY=1;exitDx=0;exitDy=0;entryX=0;entryY=0.5;entryDx=0;entryDy=0;" edge="1" parent="1" source="iiI9C8znlk5VDKFKb1sg-16" target="iiI9C8znlk5VDKFKb1sg-13">
          <mxGeometry relative="1" as="geometry">
            <Array as="points">
              <mxPoint x="472" y="483" />
              <mxPoint x="472" y="548" />
            </Array>
          </mxGeometry>
        </mxCell>
        <mxCell id="j82Xai9rbDh0sW9UpF-Y-5" style="edgeStyle=orthogonalEdgeStyle;rounded=0;orthogonalLoop=1;jettySize=auto;html=1;exitX=0.5;exitY=1;exitDx=0;exitDy=0;entryX=0;entryY=0.5;entryDx=0;entryDy=0;" edge="1" parent="1" source="iiI9C8znlk5VDKFKb1sg-16" target="iiI9C8znlk5VDKFKb1sg-11">
          <mxGeometry relative="1" as="geometry">
            <Array as="points">
              <mxPoint x="424" y="648" />
            </Array>
          </mxGeometry>
        </mxCell>
        <mxCell id="iiI9C8znlk5VDKFKb1sg-16" value="Auslesen der Betriebssystemversion" style="ellipse;whiteSpace=wrap;html=1;" parent="1" vertex="1">
          <mxGeometry x="354" y="423" width="140" height="70" as="geometry" />
        </mxCell>
        <mxCell id="iiI9C8znlk5VDKFKb1sg-27" value="" style="edgeStyle=orthogonalEdgeStyle;rounded=0;orthogonalLoop=1;jettySize=auto;html=1;" parent="1" source="iiI9C8znlk5VDKFKb1sg-19" target="iiI9C8znlk5VDKFKb1sg-26" edge="1">
          <mxGeometry relative="1" as="geometry" />
        </mxCell>
        <mxCell id="iiI9C8znlk5VDKFKb1sg-19" value="Exportieren der Daten in die DB" style="ellipse;whiteSpace=wrap;html=1;" parent="1" vertex="1">
          <mxGeometry x="830" y="425" width="140" height="70" as="geometry" />
        </mxCell>
        <mxCell id="iiI9C8znlk5VDKFKb1sg-26" value="Dashboard anzeigen" style="ellipse;whiteSpace=wrap;html=1;" parent="1" vertex="1">
          <mxGeometry x="1020" y="425" width="140" height="70" as="geometry" />
        </mxCell>
        <mxCell id="j82Xai9rbDh0sW9UpF-Y-8" value="Auslesen der Systemdaten" style="text;html=3;align=center;verticalAlign=middle;whiteSpace=wrap;rounded=0;" vertex="1" parent="1">
          <mxGeometry x="205" y="259" width="182" height="30" as="geometry" />
        </mxCell>
      </root>
    </mxGraphModel>
  </diagram>
</mxfile>
